<?xml version="1.0" standalone="no"?>
<!DOCTYPE svg PUBLIC "-//W3C//DTD SVG 20010904//EN"
 "http://www.w3.org/TR/2001/REC-SVG-20010904/DTD/svg10.dtd">
<svg version="1.0" xmlns="http://www.w3.org/2000/svg"
 width="2000.000000pt" height="2000.000000pt" viewBox="0 0 2000.000000 2000.000000"
 preserveAspectRatio="xMidYMid meet">
<metadata>
Created by potrace 1.14, written by Peter Selinger 2001-2017
</metadata>
<g transform="translate(0.000000,2000.000000) scale(0.100000,-0.100000)"
fill="#000000" stroke="none">
<path d="M3770 19979 c-1306 -114 -2498 -862 -3173 -1990 -108 -181 -248 -470
-320 -659 -145 -380 -231 -788 -257 -1217 -8 -125 -10 -1967 -8 -6223 3 -5744
4 -6052 21 -6185 65 -508 188 -921 403 -1355 211 -427 444 -751 784 -1090 330
-331 661 -571 1066 -774 444 -222 869 -349 1384 -413 139 -17 418 -18 6315
-18 5897 0 6176 1 6315 18 523 65 981 205 1425 436 772 400 1389 1021 1785
1796 262 514 405 1049 440 1647 16 270 8 12145 -8 12283 -66 563 -182 978
-398 1424 -406 838 -1066 1503 -1899 1913 -460 226 -942 360 -1465 407 -140
13 -12264 13 -12410 0z m8087 -4471 c1027 -804 2285 -1788 2795 -2187 l928
-726 0 -1813 c0 -1448 -3 -1812 -12 -1806 -7 5 -951 742 -2098 1639 -1147 897
-2401 1878 -2787 2180 l-703 550 0 1812 c0 997 2 1813 4 1813 3 0 846 -658
1873 -1462z m-2820 -2930 c7218 -5648 6547 -5119 6526 -5138 -10 -9 -484 -381
-1053 -825 -569 -445 -1078 -842 -1130 -883 -52 -41 -100 -79 -106 -83 -7 -6
-94 57 -230 163 -120 94 -401 314 -624 488 -223 174 -637 499 -921 721 -612
479 -5062 3962 -6267 4904 -463 362 -841 663 -840 667 4 11 2300 1808 2310
1808 4 0 1055 -820 2335 -1822z m-2781 -2960 c1021 -799 2206 -1727 2633
-2061 427 -335 849 -666 939 -735 l162 -127 0 -1807 c0 -995 -3 -1808 -7
-1808 -5 0 -1263 983 -2798 2183 l-2790 2184 -3 1811 c-1 997 0 1812 3 1812 3
0 841 -654 1861 -1452z"/>
<path d="M3080 22 c42 -16 555 -17 6880 -19 6673 -3 6837 -2 6905 16 69 19
-49 19 -6880 19 -6472 0 -6947 -1 -6905 -16z"/>
</g>
</svg>
